<?xml version="1.0" encoding="UTF-8"?>
<svg xmlns="http://www.w3.org/2000/svg" xmlns:xlink="http://www.w3.org/1999/xlink" width="150px" height="150px" viewBox="0 0 276 276" version="1.1">
<g id="surface1">
<path style=" stroke:none;fill-rule:nonzero;fill:rgb(1.176471%,4.313725%,27.45098%);fill-opacity:1;" d="M 136.179688 272.300781 C 60.875 272.207031 -0.09375 211.1875 0 136.019531 C 0.09375 60.851562 61.222656 -0.0078125 136.527344 0.0859375 C 211.832031 0.183594 272.800781 61.203125 272.707031 136.367188 C 272.605469 211.539062 211.484375 272.394531 136.179688 272.300781 Z M 136.179688 1.460938 C 62.097656 1.585938 2.125 61.582031 2.222656 135.527344 C 2.324219 209.46875 62.472656 269.332031 136.53125 269.238281 C 210.59375 269.144531 270.582031 209.121094 270.488281 135.171875 C 270.378906 61.234375 210.25 1.378906 136.179688 1.46875 Z M 136.179688 1.460938 "/>
<path style=" stroke:none;fill-rule:nonzero;fill:rgb(1.176471%,4.313725%,27.45098%);fill-opacity:1;" d="M 136.179688 264.164062 C 65.363281 264.074219 8.03125 206.695312 8.121094 136.007812 C 8.210938 65.320312 65.699219 8.09375 136.511719 8.183594 C 207.328125 8.273438 264.660156 65.65625 264.566406 136.34375 C 264.476562 207.03125 206.992188 264.261719 136.179688 264.164062 Z M 136.179688 9.597656 C 66.585938 9.6875 10.230469 66.074219 10.335938 135.539062 C 10.441406 205.003906 66.917969 261.261719 136.507812 261.152344 C 206.097656 261.039062 262.457031 204.675781 262.34375 135.210938 C 262.25 65.75 205.765625 9.511719 136.179688 9.597656 Z M 136.179688 9.597656 "/>
<path style=" stroke:none;fill-rule:nonzero;fill:rgb(1.176471%,4.313725%,27.45098%);fill-opacity:1;" d="M 136.179688 256.015625 C 69.847656 255.9375 16.144531 202.191406 16.226562 135.984375 C 16.3125 69.777344 70.144531 16.167969 136.476562 16.25 C 202.808594 16.335938 256.511719 70.082031 256.429688 136.285156 C 256.347656 202.496094 202.507812 256.101562 136.179688 256.015625 Z M 136.179688 17.722656 C 71.082031 17.824219 18.371094 70.570312 18.460938 135.550781 C 18.550781 200.53125 71.390625 253.144531 136.492188 253.058594 C 201.597656 252.972656 254.292969 200.222656 254.210938 135.242188 C 254.125 70.257812 201.28125 17.644531 136.179688 17.734375 Z M 136.179688 17.722656 "/>
<path style=" stroke:none;fill-rule:nonzero;fill:rgb(1.176471%,4.313725%,27.45098%);fill-opacity:1;" d="M 136.179688 247.890625 C 74.339844 247.808594 24.269531 197.703125 24.351562 135.972656 C 24.429688 74.246094 74.628906 24.269531 136.46875 24.347656 C 198.308594 24.429688 248.398438 74.535156 248.296875 136.285156 C 248.214844 198.011719 198.015625 247.980469 136.179688 247.890625 Z M 136.179688 25.886719 C 75.5625 25.945312 26.488281 75.054688 26.5625 135.554688 C 26.640625 196.054688 75.839844 245.042969 136.441406 244.972656 C 197.046875 244.902344 246.136719 195.792969 246.0625 135.285156 C 245.988281 74.78125 196.792969 25.796875 136.179688 25.871094 Z M 136.179688 25.886719 "/>
<path style=" stroke:none;fill-rule:nonzero;fill:rgb(1.176471%,4.313725%,27.45098%);fill-opacity:1;" d="M 136.179688 239.753906 C 78.820312 239.679688 32.390625 193.203125 32.488281 135.953125 C 32.582031 78.707031 79.101562 32.355469 136.441406 32.429688 C 193.785156 32.503906 240.246094 78.980469 240.171875 136.234375 C 240.09375 193.484375 193.53125 239.832031 136.179688 239.753906 Z M 136.179688 34.007812 C 80.050781 34.082031 34.609375 79.566406 34.6875 135.589844 C 34.761719 191.617188 80.320312 236.972656 136.441406 236.898438 C 192.566406 236.824219 238.011719 191.339844 237.9375 135.316406 C 237.855469 79.296875 192.300781 33.941406 136.179688 34.011719 Z M 136.179688 34.007812 "/>
<path style=" stroke:none;fill-rule:nonzero;fill:rgb(1.176471%,4.313725%,27.45098%);fill-opacity:1;" d="M 136.179688 231.617188 C 83.148438 231.617188 40.160156 188.710938 40.160156 135.769531 C 40.160156 82.828125 83.140625 39.921875 136.179688 39.921875 C 189.214844 39.921875 232.199219 82.828125 232.199219 135.769531 C 232.199219 188.703125 189.207031 231.617188 136.179688 231.617188 Z M 136.179688 42.144531 C 84.375 42.144531 42.382812 84.050781 42.386719 135.773438 C 42.390625 187.5 84.371094 229.402344 136.1875 229.394531 C 188.007812 229.390625 229.984375 187.488281 229.980469 135.765625 C 229.972656 84.058594 187.980469 42.144531 136.179688 42.144531 Z M 136.179688 42.144531 "/>
<path style=" stroke:none;fill-rule:nonzero;fill:rgb(1.176471%,4.313725%,27.45098%);fill-opacity:1;" d="M 136.179688 223.480469 C 94.261719 223.476562 58.183594 193.917969 50.007812 152.882812 C 41.832031 111.84375 63.835938 70.757812 102.5625 54.746094 C 141.289062 38.734375 185.953125 52.261719 209.242188 87.050781 C 232.527344 121.839844 227.953125 168.207031 198.3125 197.792969 C 181.832031 214.238281 159.484375 223.480469 136.179688 223.480469 Z M 136.179688 50.28125 C 95.320312 50.28125 60.152344 79.089844 52.179688 119.09375 C 44.207031 159.09375 65.65625 199.144531 103.402344 214.753906 C 141.152344 230.359375 184.6875 217.175781 207.390625 183.265625 C 230.089844 149.355469 225.628906 104.160156 196.738281 75.320312 C 180.675781 59.289062 158.890625 50.28125 136.179688 50.28125 Z M 136.179688 50.28125 "/>
<path style=" stroke:none;fill-rule:nonzero;fill:rgb(1.176471%,4.313725%,27.45098%);fill-opacity:1;" d="M 136.179688 215.34375 C 98.148438 215.34375 65.417969 188.53125 57.996094 151.300781 C 50.578125 114.070312 70.535156 76.792969 105.667969 62.265625 C 140.800781 47.738281 181.324219 60.003906 202.453125 91.566406 C 223.582031 123.128906 219.433594 165.191406 192.542969 192.035156 C 177.59375 206.957031 157.320312 215.339844 136.179688 215.34375 Z M 136.179688 58.417969 C 99.207031 58.414062 67.378906 84.484375 60.167969 120.679688 C 52.953125 156.878906 72.359375 193.121094 106.515625 207.242188 C 140.675781 221.367188 180.074219 209.4375 200.613281 178.75 C 221.152344 148.0625 217.117188 107.167969 190.96875 81.070312 C 176.441406 66.566406 156.730469 58.414062 136.179688 58.417969 Z M 136.179688 58.417969 "/>
<path style=" stroke:none;fill-rule:nonzero;fill:rgb(1.176471%,4.313725%,27.45098%);fill-opacity:1;" d="M 136.179688 207.207031 C 102.035156 207.207031 72.648438 183.132812 65.988281 149.707031 C 59.328125 116.28125 77.246094 82.8125 108.789062 69.773438 C 140.332031 56.730469 176.714844 67.746094 195.683594 96.082031 C 214.648438 124.417969 210.925781 162.183594 186.78125 186.28125 C 173.359375 199.679688 155.160156 207.207031 136.179688 207.207031 Z M 136.179688 66.554688 C 103.097656 66.558594 74.625 89.886719 68.175781 122.273438 C 61.722656 154.660156 79.089844 187.085938 109.652344 199.71875 C 140.21875 212.351562 175.464844 201.675781 193.84375 174.21875 C 212.21875 146.761719 208.605469 110.171875 185.210938 86.824219 C 172.207031 73.84375 154.570312 66.550781 136.179688 66.554688 Z M 136.179688 66.554688 "/>
<path style=" stroke:none;fill-rule:nonzero;fill:rgb(1.176471%,4.313725%,27.45098%);fill-opacity:1;" d="M 136.179688 199.074219 C 105.921875 199.074219 79.882812 177.742188 73.980469 148.121094 C 68.074219 118.5 83.957031 88.84375 111.90625 77.285156 C 139.859375 65.726562 172.097656 75.488281 188.90625 100.597656 C 205.71875 125.707031 202.417969 159.175781 181.023438 180.53125 C 169.128906 192.402344 153 199.074219 136.179688 199.074219 Z M 136.179688 74.691406 C 106.988281 74.695312 81.867188 95.277344 76.175781 123.855469 C 70.480469 152.429688 85.804688 181.042969 112.769531 192.191406 C 139.738281 203.339844 170.839844 193.921875 187.058594 169.695312 C 203.273438 145.472656 200.089844 113.183594 179.449219 92.582031 C 167.972656 81.125 152.410156 74.691406 136.179688 74.691406 Z M 136.179688 74.691406 "/>
<path style=" stroke:none;fill-rule:nonzero;fill:rgb(1.176471%,4.313725%,27.45098%);fill-opacity:1;" d="M 136.179688 190.933594 C 105.652344 190.941406 80.902344 166.246094 80.894531 135.777344 C 80.890625 105.308594 105.636719 80.605469 136.160156 80.609375 C 166.6875 80.609375 191.429688 105.316406 191.421875 135.785156 C 191.382812 166.222656 166.671875 190.890625 136.179688 190.933594 Z M 136.179688 82.828125 C 106.886719 82.828125 83.136719 106.53125 83.136719 135.773438 C 83.132812 165.011719 106.878906 188.71875 136.171875 188.722656 C 165.464844 188.726562 189.214844 165.027344 189.222656 135.785156 C 189.226562 106.539062 165.476562 82.828125 136.179688 82.828125 Z M 136.179688 82.828125 "/>
<path style=" stroke:none;fill-rule:nonzero;fill:rgb(1.176471%,4.313725%,27.45098%);fill-opacity:1;" d="M 136.179688 182.796875 C 110.15625 182.796875 89.066406 161.738281 89.066406 135.765625 C 89.070312 109.792969 110.167969 88.738281 136.1875 88.746094 C 162.207031 88.75 183.296875 109.8125 183.289062 135.785156 C 183.28125 161.75 162.191406 182.796875 136.179688 182.796875 Z M 136.179688 90.960938 C 111.386719 90.957031 91.285156 111.015625 91.28125 135.761719 C 91.277344 160.507812 111.371094 180.574219 136.160156 180.582031 C 160.953125 180.585938 181.054688 160.53125 181.066406 135.785156 C 181.066406 111.039062 160.96875 90.976562 136.179688 90.976562 Z M 136.179688 90.960938 "/>
<path style=" stroke:none;fill-rule:nonzero;fill:rgb(1.176471%,4.313725%,27.45098%);fill-opacity:1;" d="M 136.179688 174.660156 C 114.660156 174.660156 97.214844 157.246094 97.21875 135.765625 C 97.222656 114.285156 114.671875 96.875 136.1875 96.882812 C 157.707031 96.886719 175.144531 114.304688 175.136719 135.785156 C 175.113281 157.25 157.683594 174.644531 136.179688 174.660156 Z M 136.179688 99.101562 C 115.890625 99.105469 99.445312 115.527344 99.449219 135.777344 C 99.449219 156.03125 115.898438 172.445312 136.183594 172.449219 C 156.472656 172.449219 172.921875 156.035156 172.929688 135.785156 C 172.917969 115.53125 156.46875 99.113281 136.179688 99.101562 Z M 136.179688 99.101562 "/>
<path style=" stroke:none;fill-rule:nonzero;fill:rgb(1.176471%,4.313725%,27.45098%);fill-opacity:1;" d="M 136.179688 166.519531 C 119.15625 166.523438 105.359375 152.75 105.359375 135.761719 C 105.363281 118.773438 119.164062 105.003906 136.183594 105.007812 C 153.207031 105.015625 166.996094 118.796875 166.984375 135.785156 C 166.957031 152.753906 153.179688 166.503906 136.179688 166.519531 Z M 136.179688 107.238281 C 120.390625 107.238281 107.589844 120.015625 107.589844 135.773438 C 107.589844 151.535156 120.390625 164.3125 136.179688 164.3125 C 151.96875 164.3125 164.765625 151.535156 164.765625 135.773438 C 164.765625 120.015625 151.96875 107.238281 136.179688 107.238281 Z M 136.179688 107.238281 "/>
</g>
</svg>
