<svg xmlns="http://www.w3.org/2000/svg" xmlns:xlink="http://www.w3.org/1999/xlink" id="Capa_1" viewBox="0 0 300 120.57"><defs><style>.cls-1{fill:none;}.cls-2{clip-path:url(#clippath);}.cls-3{fill:#f8d407;}.cls-4{fill:#030b46;}</style><clipPath id="clippath"><rect class="cls-1" x="1.89" y="6.83" width="296.22" height="106.9"></rect></clipPath></defs><g class="cls-2"><g id="Grupo_7206"><path id="Trazado_15471" class="cls-4" d="M77.68,32.34c-.17-2.93-.37-5.89-.57-8.81s-.45-5.77-.71-8.46-.56-5.17-.88-7.36l-.07-.5h-7.59l-.17,.3c-.58,1.05-1.24,2.36-1.99,3.89-.74,1.53-1.52,3.2-2.34,5s-1.62,3.64-2.41,5.49l-1.7,4-1.7-4c-.79-1.87-1.6-3.71-2.41-5.49s-1.6-3.47-2.34-5c-.75-1.54-1.42-2.85-1.99-3.89l-.17-.31h-7.92l-.07,.5c-.32,2.19-.61,4.66-.88,7.36-.27,2.69-.51,5.54-.71,8.46s-.4,5.89-.57,8.81c-.17,2.95-.33,5.74-.45,8.31l-.03,.61h8.4l.02-.57c.09-3.22,.22-6.73,.38-10.43,.12-2.97,.3-5.99,.53-9.01,.31,.71,.63,1.46,.97,2.24,.7,1.61,1.39,3.22,2.07,4.84,.68,1.61,1.34,3.15,1.98,4.63,.63,1.47,1.17,2.73,1.62,3.77l.15,.36h5.95l.15-.36c.44-1.04,.98-2.3,1.62-3.77s1.29-3.01,1.98-4.63c.68-1.61,1.37-3.22,2.07-4.84l.97-2.24c.22,3.02,.4,6.04,.53,9.01,.16,3.77,.28,7.28,.38,10.43l.02,.57h8.4l-.03-.61c-.13-2.56-.28-5.35-.45-8.31"></path><path id="Trazado_15472" class="cls-4" d="M112.48,30.66c-1.11-3-2.21-5.87-3.27-8.51s-2.12-5.18-3.18-7.58c-1.05-2.39-2.13-4.75-3.2-7.01l-.16-.33h-7.76l-.16,.33c-1.11,2.27-2.19,4.64-3.22,7.02-1.03,2.39-2.09,4.93-3.15,7.58-1.05,2.63-2.15,5.49-3.26,8.5-1.1,2.98-2.29,6.29-3.52,9.83l-.27,.78h8.94l.13-.41c.36-1.13,.75-2.31,1.16-3.5l1.11-3.21h12.01l1.12,3.2c.41,1.17,.8,2.35,1.18,3.51l.13,.41h9.18l-.27-.78c-1.24-3.53-2.42-6.84-3.53-9.83m-14.02-13.24c.07-.19,.14-.37,.21-.53l.2,.52c.32,.82,.69,1.77,1.12,2.85,.43,1.08,.88,2.27,1.34,3.55,.38,1.06,.78,2.16,1.18,3.3h-7.74c.42-1.13,.83-2.23,1.24-3.28,.5-1.3,.96-2.49,1.36-3.56s.77-2.03,1.08-2.84"></path><path id="Trazado_15473" class="cls-4" d="M145.06,10.91c-1.8-1.46-3.89-2.51-6.13-3.1-2.55-.67-5.18-1-7.81-.97-1.33,0-2.95,.06-4.8,.17-1.81,.11-3.62,.32-5.41,.65l-.48,.09V40.73l.47,.09c1.75,.35,3.52,.59,5.3,.7,1.78,.11,3.35,.17,4.69,.17,2.72,.03,5.43-.33,8.04-1.07,2.26-.64,4.36-1.74,6.17-3.25,1.73-1.49,3.07-3.37,3.93-5.49,.96-2.44,1.43-5.05,1.38-7.68,.06-2.69-.4-5.36-1.37-7.86-.86-2.11-2.22-3.98-3.96-5.44m-3.47,13.31c0,3.12-.85,5.58-2.52,7.33s-4.29,2.62-7.81,2.62c-.62,0-1.16,0-1.62-.02-.23,0-.44-.02-.64-.03V14.4c.3-.03,.62-.05,.95-.06,.53-.02,1.05-.02,1.55-.02,3.52,0,6.11,.83,7.69,2.48s2.4,4.15,2.4,7.42"></path><path id="Trazado_15474" class="cls-4" d="M165.29,27.13h13.14v-7.24h-13.14v-5.29h14.8V7.22h-23.38V41.27h24.47v-7.39h-15.9v-6.75Z"></path><path id="Trazado_15475" class="cls-4" d="M221.87,22.77c2-1.38,3.18-3.67,3.16-6.1,.05-1.64-.35-3.26-1.15-4.69-.78-1.28-1.87-2.34-3.18-3.08-1.47-.81-3.07-1.36-4.72-1.61-1.94-.32-3.9-.47-5.87-.46-1.56,0-3.26,.07-5.07,.22-1.69,.13-3.38,.34-5.05,.65l-.48,.09V40.63l.47,.1c1.87,.4,3.76,.67,5.66,.8,1.79,.11,3.62,.17,5.42,.17,5.06,0,8.95-.91,11.55-2.71,2.67-1.85,4.02-4.63,4.02-8.26,.02-1.71-.4-3.39-1.21-4.89-.84-1.37-2.08-2.43-3.56-3.06m-13.97,4.17h4.06c1.58-.09,3.16,.22,4.6,.9,.96,.56,1.51,1.63,1.41,2.74,.13,1.25-.56,2.45-1.7,2.98-1.62,.66-3.37,.96-5.11,.89-.74,0-1.44-.01-2.06-.05-.42-.02-.82-.05-1.2-.09v-7.38Zm7.6-7.61c-1.44,.64-3.02,.91-4.59,.8h-3.02v-6.05c.42-.03,.88-.06,1.37-.07,.72-.02,1.4-.02,2.03-.02,1.43-.08,2.87,.17,4.18,.74,.82,.45,1.3,1.35,1.21,2.28,.08,.94-.38,1.83-1.19,2.32"></path><path id="Trazado_15476" class="cls-4" d="M250.48,7.21l-.16,.35c-1,2.25-2.12,4.51-3.31,6.73-1.05,1.94-2.15,3.91-3.28,5.84-1.14-1.95-2.22-3.91-3.23-5.84-1.16-2.22-2.25-4.48-3.25-6.73l-.15-.35h-9.92l.43,.85c1.8,3.54,3.7,7.03,5.64,10.37,1.92,3.31,3.96,6.65,6.06,9.94v12.89h8.57v-12.99c2.11-3.3,4.14-6.62,6.04-9.89,1.93-3.32,3.82-6.79,5.61-10.32l.43-.85h-9.49Z"></path><path id="Trazado_15477" class="cls-3" d="M103.51,85.26c0,9.04-7.33,16.36-16.36,16.36s-16.36-7.33-16.36-16.36,7.33-16.36,16.36-16.36h0c9.04,0,16.36,7.33,16.36,16.36h0"></path><path id="Trazado_15478" class="cls-4" d="M85.81,78.03c-1.31,2.03-2.47,4.17-3.58,6.23-1.08,2.01-2.16,3.94-3.33,5.76l6.45,6.45c1.97-2.65,3.73-5.45,5.28-8.36,1.37-2.61,2.96-5.09,4.76-7.42l-6.57-6.57c-1.11,1.22-2.12,2.52-3.02,3.9"></path><path id="Trazado_15479" class="cls-4" d="M74.01,95.87c-4.41,3.65-9.96,5.63-15.69,5.59-2.82,.02-5.63-.41-8.32-1.27,6.9-7.96,12.13-19.5,8.02-29.83-2.32-5.6-7.39-9.6-13.38-10.55-5.9-1.18-11.98,.79-16.07,5.2-8.4,9.32-5.47,24.26,2.21,33.32,.9,1.06,1.87,2.07,2.9,3.01-8.72,4.18-18.9,3.99-27.46-.5-.78,1.55-1.59,3.1-2.41,4.63-.63,1.18-1.27,2.34-1.92,3.5,13.08,6.86,28.74,6.17,40.44-1.83,6.23,2.94,13.15,4.09,19.99,3.29,7.82-.88,15.03-4.64,20.22-10.55l-6.27-6.27c-.7,.81-1.46,1.57-2.27,2.27m-25.63-10.5c-.09,.25-.19,.5-.29,.75-1.52,3.67-3.76,6.99-6.6,9.77-4.48-3.2-7.53-8.01-8.51-13.42-.78-4.69,.42-10.96,5-13.37,3.79-1.98,8.45-.51,10.43,3.28,.14,.26,.26,.53,.36,.8,1.59,3.8,1,8.43-.39,12.2"></path><path id="Trazado_15480" class="cls-4" d="M296.31,105.2c-.84-1.52-1.67-3.06-2.55-4.57-.34,.13-.68,.28-1.05,.47-7.3,3.62-15.73,4.21-23.46,1.64-1.26-.42-2.48-.92-3.67-1.51,2.63-2.45,4.86-5.3,6.61-8.44,2.66-4.58,3.94-9.84,3.7-15.13-.27-5.53-2.82-10.71-7.05-14.29-7.54-6.13-18.62-4.99-24.75,2.56-1.02,1.25-1.86,2.64-2.5,4.12-2.73,6.31-1.35,13.04,.29,17.58,1.66,4.56,4.15,8.76,7.34,12.41-5.93,2.23-12.55,1.65-18.01-1.58-5.87-3.54-9.7-9.94-13.4-16.12l-1.18-1.97c-7.12-11.83-12.26-20.38-28.74-20.61-6.15,.04-12.16,1.87-17.3,5.26l-.21-.11c-1.73-1.01-3.55-1.88-5.42-2.6-.48-.19-.98-.38-1.49-.56l-.14-.05c-1.18-.41-2.38-.75-3.59-1.03-.14-.03-.27-.05-.41-.08-7.5-1.74-15.35-1.24-22.57,1.44-2.61,1.01-5.1,2.31-7.41,3.88-3.82-1.72-7.91-2.75-12.09-3.03-9.18-.72-18.28,2.21-25.32,8.16l6.43,6.43c1.53-1.41,3.26-2.58,5.14-3.48,5.2-2.39,11.07-2.93,16.62-1.53,.48,.12,.95,.25,1.42,.39-4.82,5.5-7.94,12.27-8.99,19.5-.97,7.33,1.49,13.76,6.75,17.64,3.24,2.4,7.17,3.71,11.2,3.73,6.94,.03,13.18-4.2,15.73-10.65,2.59-6.17,2.31-14.42-.7-21.02-1.77-3.89-4.29-7.4-7.42-10.31,2.94-1.38,6.08-2.3,9.31-2.71,5.39-.75,10.87,.07,15.8,2.36-3.09,3.49-5.59,7.46-7.41,11.74-3.3,7.69-3.4,15.79-.28,21.66,2.42,4.55,6.65,7.51,12.23,8.57,1.13,.22,2.27,.33,3.42,.33,4.03,.03,7.92-1.47,10.89-4.2,4.7-4.27,7.21-11.3,6.55-18.35-.61-6.54-4.12-14.02-10.09-20.11,3.03-1.71,6.47-2.56,9.94-2.44,6.19,.32,11.91,4.2,16.52,11.22,1.2,1.82,2.37,3.67,3.54,5.51,2.15,3.38,4.37,6.88,6.76,10.23,8.21,11.5,19.65,16.69,32.22,14.6,3.35-.56,6.6-1.61,9.64-3.12,2.4,1.6,4.96,2.93,7.66,3.96,10.43,3.91,22.01,3.3,31.98-1.67,.45-.23,.89-.51,1.3-.81-.6-1.11-1.19-2.23-1.8-3.33m-157.93-7.19c-.57,2-1.68,3.8-3.2,5.21-6.33,5.79-14.13-1.01-13.7-8.19,.31-5.24,2.79-10.59,5.95-14.73,.33-.43,.68-.84,1.03-1.25,.09-.11,.19-.23,.28-.34,.21-.24,.44-.47,.67-.7s.47-.47,.7-.71c2.57,1.96,4.74,4.4,6.39,7.19,2.38,4.08,3.06,8.93,1.9,13.5m41.01,0c-.37,2.04-1.37,3.91-2.86,5.36-1.52,1.38-3.52,2.12-5.58,2.06-4.8-.17-8.63-4.94-8.83-9.54-.25-5.62,2.69-11.39,6.05-15.72,.15-.2,.31-.39,.47-.59,.8-.98,1.62-1.9,2.46-2.76,3.07,2.74,5.49,6.12,7.12,9.9,1.49,3.57,1.9,7.5,1.18,11.3m79.01-3.12c-.29,.23-.57,.45-.86,.66-2.45-2.4-4.49-5.19-6.02-8.26-2.1-4.23-3.21-9.29-1.16-13.76,1.13-2.59,3.4-4.51,6.14-5.18,3.64-.75,6.7,1.6,8.45,4.59,4.67,7.96-.07,16.8-6.56,21.96"></path></g></g></svg>