<svg xmlns:inkscape="http://www.inkscape.org/namespaces/inkscape" xmlns:sodipodi="http://sodipodi.sourceforge.net/DTD/sodipodi-0.dtd" xmlns="http://www.w3.org/2000/svg" xmlns:svg="http://www.w3.org/2000/svg" width="144.289" height="101.182" viewBox="0 0 144.289 101.182" id="svg33" sodipodi:docname="Grupo 8377.svg" inkscape:version="1.2.2 (732a01da63, 2022-12-09)"><defs id="defs25"><clipPath id="clip-path"><rect id="Rect&#xE1;ngulo_5195" data-name="Rect&#xE1;ngulo 5195" width="144.289" height="101.182" fill="none"></rect></clipPath></defs><g id="Grupo_8377" data-name="Grupo 8377" transform="translate(0 0)"><g id="Grupo_8376" data-name="Grupo 8376" transform="translate(0 0)" clip-path="url(#clip-path)"><path id="Trazado_18414" data-name="Trazado 18414" d="M72.144,101.182A6,6,0,0,1,66.9,98.153L56.588,80.3H15.411A15.427,15.427,0,0,1,0,64.885V15.411A15.427,15.427,0,0,1,15.411,0H128.879a15.427,15.427,0,0,1,15.411,15.411V64.885A15.427,15.427,0,0,1,128.879,80.3H87.7L77.392,98.153a6,6,0,0,1-5.248,3.029M15.411,4.251a11.172,11.172,0,0,0-11.16,11.16V64.885a11.172,11.172,0,0,0,11.16,11.16h41.5a3.705,3.705,0,0,1,3.2,1.847L70.579,96.027a1.852,1.852,0,0,0,3.131,0L84.181,77.893a3.708,3.708,0,0,1,3.2-1.849h41.5a11.173,11.173,0,0,0,11.16-11.16V15.411a11.173,11.173,0,0,0-11.16-11.16Z" transform="translate(0 0.001)" fill="#010b49"></path><path id="Trazado_18415" data-name="Trazado 18415" d="M33.85,46.166a2.561,2.561,0,0,1-2.517-3l1.677-9.788a.192.192,0,0,0-.055-.172l-7.112-6.932a2.559,2.559,0,0,1,1.418-4.364l9.829-1.428a.2.2,0,0,0,.147-.1l.357-.725.855-1.592,2.041-4.277.006-.013,1.137-2.3a2.557,2.557,0,0,1,4.587,0l4.4,8.906a.2.2,0,0,0,.147.106l9.829,1.428a2.558,2.558,0,0,1,1.418,4.364L54.9,33.21a.192.192,0,0,0-.055.172l1.679,9.791a2.558,2.558,0,0,1-3.713,2.7l-8.792-4.621a.19.19,0,0,0-.179,0l-8.794,4.621a2.535,2.535,0,0,1-1.192.3M39.5,18.6h0Z" transform="translate(28.218 11.31)" fill="#4047ff"></path><path id="Trazado_18416" data-name="Trazado 18416" d="M34.917,46.166a2.55,2.55,0,0,1-1.195-.3l-8.792-4.621a.19.19,0,0,0-.179,0l-8.794,4.621a2.557,2.557,0,0,1-3.711-2.7l1.679-9.791a.193.193,0,0,0-.055-.172L6.759,26.278a2.558,2.558,0,0,1,1.418-4.364l9.829-1.428a.2.2,0,0,0,.147-.106l.357-.725.855-1.59L21.4,13.788l.006-.013,1.137-2.3a2.557,2.557,0,0,1,4.587,0l4.4,8.906a.191.191,0,0,0,.147.106l9.829,1.428a2.558,2.558,0,0,1,1.418,4.364L35.812,33.21a.192.192,0,0,0-.055.172l1.679,9.791a2.563,2.563,0,0,1-2.519,2.993M20.419,18.6h0Z" transform="translate(6.736 11.31)" fill="#4047ff"></path><path id="Trazado_18417" data-name="Trazado 18417" d="M52.936,46.166a2.563,2.563,0,0,1-2.519-2.993L52.1,33.382a.2.2,0,0,0-.055-.172l-7.112-6.932a2.558,2.558,0,0,1,1.418-4.364l9.829-1.428a.2.2,0,0,0,.147-.106l.357-.725.855-1.59,2.041-4.277.006-.013,1.137-2.3a2.557,2.557,0,0,1,4.587,0l4.4,8.906a.191.191,0,0,0,.147.106l9.829,1.428a2.558,2.558,0,0,1,1.418,4.364L73.981,33.21a.2.2,0,0,0-.057.172L75.6,43.173a2.556,2.556,0,0,1-3.711,2.7L63.1,41.247a.19.19,0,0,0-.179,0l-8.794,4.621a2.535,2.535,0,0,1-1.192.3M58.588,18.6h0Z" transform="translate(49.7 11.31)" fill="#4047ff"></path></g></g></svg>