<svg xmlns="http://www.w3.org/2000/svg" xmlns:xlink="http://www.w3.org/1999/xlink" id="Grupo_8375" data-name="Grupo 8375" width="109.786" height="126.991" viewBox="0 0 109.786 126.991"><defs><clipPath id="clip-path"><rect id="Rect&#xE1;ngulo_5194" data-name="Rect&#xE1;ngulo 5194" width="109.786" height="126.991" fill="none"></rect></clipPath></defs><g id="Grupo_8374" data-name="Grupo 8374" transform="translate(0 0)" clip-path="url(#clip-path)"><path id="Trazado_18402" data-name="Trazado 18402" d="M64.3,126.991H10.613A10.571,10.571,0,0,1,.056,116.431V10.56A10.571,10.571,0,0,1,10.613,0H64.3a10.572,10.572,0,0,1,10.56,10.56V116.431a10.572,10.572,0,0,1-10.56,10.56M10.613,4.74A5.825,5.825,0,0,0,4.8,10.56V116.431a5.825,5.825,0,0,0,5.818,5.82H64.3a5.826,5.826,0,0,0,5.82-5.82V10.56A5.826,5.826,0,0,0,64.3,4.74Z" transform="translate(0.077 0)" fill="#010b49"></path><path id="Trazado_18403" data-name="Trazado 18403" d="M72.485,11.429H2.426a2.37,2.37,0,1,1,0-4.74h70.06a2.37,2.37,0,0,1,0,4.74" transform="translate(0.077 9.163)" fill="#010b49"></path><path id="Trazado_18404" data-name="Trazado 18404" d="M72.432,50.364H2.37a2.37,2.37,0,0,1,0-4.74H72.432a2.37,2.37,0,0,1,0,4.74" transform="translate(0 62.494)" fill="#010b49"></path><path id="Trazado_18405" data-name="Trazado 18405" d="M25.83,8.254H14.9a2.37,2.37,0,1,1,0-4.74H25.83a2.37,2.37,0,1,1,0,4.74" transform="translate(17.167 4.814)" fill="#4047f6"></path><path id="Trazado_18406" data-name="Trazado 18406" d="M10.73,24.046,21.1,28.215V31.7L6.177,25.539V22.553L21.1,16.316V19.8Z" transform="translate(8.462 22.349)" fill="#4047f6"></path><path id="Trazado_18407" data-name="Trazado 18407" d="M22.5,33.8,5.8,26.906V22.733l16.7-6.981v5.417l-8.9,3.642,8.9,3.578ZM7.579,25.717l13.147,5.427V29.589L8.883,24.826l11.844-4.851V18.423l-13.147,5.5Z" transform="translate(7.947 21.577)" fill="#4047f6"></path><path id="Trazado_18408" data-name="Trazado 18408" d="M13.422,41.678,22.079,14.2a1.569,1.569,0,1,1,2.993.943L16.42,42.621a1.57,1.57,0,0,1-1.5,1.1h0a1.569,1.569,0,0,1-1.5-2.04" transform="translate(18.285 17.946)" fill="#4047f6"></path><path id="Trazado_18409" data-name="Trazado 18409" d="M15.437,45.122a2.462,2.462,0,0,1-2.348-3.2L21.746,14.45a2.457,2.457,0,1,1,4.687,1.476L17.781,43.4a2.446,2.446,0,0,1-2.344,1.72M24.089,14.5a.679.679,0,0,0-.649.476L14.783,42.46a.678.678,0,0,0,.1.6.71.71,0,0,0,1.2-.2l8.652-27.477a.681.681,0,0,0-.649-.886" transform="translate(17.77 17.433)" fill="#4047f6"></path><path id="Trazado_18410" data-name="Trazado 18410" d="M34.125,25.539,19.2,31.7V28.217l10.372-4.171L19.2,19.8V16.316l14.925,6.237Z" transform="translate(26.3 22.349)" fill="#4047f6"></path><path id="Trazado_18411" data-name="Trazado 18411" d="M18.826,33.8V28.39l8.9-3.578-8.9-3.642V15.752l16.7,6.981v4.173ZM20.6,29.589v1.555l13.145-5.427v-1.8L20.6,18.423v1.552l11.844,4.851Z" transform="translate(25.787 21.577)" fill="#4047f6"></path><path id="Trazado_18412" data-name="Trazado 18412" d="M13.563,68.95V65.77A5.577,5.577,0,0,0,13.7,65.2,17.742,17.742,0,0,1,23.364,51.3a.975.975,0,0,0,.614-1.107,19.2,19.2,0,0,1,.839-7.176c2.377-7.642,9.83-14.129,18.614-14.418a20.412,20.412,0,0,1,18.593,9.46c.692,1.012,1.2,2.152,1.789,3.23a10.431,10.431,0,0,1,13.128-.154A10.3,10.3,0,0,1,79.2,54.777c.2.071.341.123.481.166,6.569,2.059,10.434,6.451,11.4,13.29a15.441,15.441,0,0,1-9.825,16.15,41.664,41.664,0,0,1-4.77,1.081H30.848c-.694-.095-1.393-.168-2.083-.289-6.737-1.183-11.32-5.086-13.956-11.282a31.878,31.878,0,0,1-1.246-4.941m31.061-9.387h-.886c-2.6,0-5.2.007-7.806,0a1.374,1.374,0,0,0-1.069,2.467q6.9,6.871,13.783,13.756a1.4,1.4,0,0,0,2.292,0q6.868-6.85,13.726-13.707a1.513,1.513,0,0,0,.514-1.758c-.3-.7-.934-.758-1.595-.756-2.6.007-5.2,0-7.806,0h-.818c0-4.671,0-9.214,0-13.756,0-1.3-.422-1.732-1.713-1.737q-3.409-.007-6.82,0c-1.405,0-1.8.4-1.8,1.8q0,6.4,0,12.8Z" transform="translate(18.578 41.529)" fill="#4047f6"></path><path id="Trazado_18413" data-name="Trazado 18413" d="M32.647,50.617v-.9q0-6.4,0-12.8c0-1.4.4-1.794,1.8-1.8q3.409-.007,6.82,0c1.292,0,1.713.434,1.713,1.737,0,4.543,0,9.086,0,13.756H43.8c2.6,0,5.2,0,7.806,0,.661,0,1.3.059,1.595.756a1.512,1.512,0,0,1-.514,1.758Q45.822,59.982,38.96,66.835a1.4,1.4,0,0,1-2.292,0q-6.9-6.875-13.783-13.756a1.374,1.374,0,0,1,1.069-2.467c2.6.012,5.2,0,7.806,0h.886" transform="translate(30.555 50.476)" fill="#010b49"></path></g></svg>